<svg xmlns="http://www.w3.org/2000/svg" style="shape-rendering:geometricPrecision;text-rendering:geometricPrecision;image-rendering:optimizeQuality;fill-rule:evenodd;clip-rule:evenodd" viewBox="0 0 400 400">
  <path fill="#c2c2c1" d="M332.5 121.5a6098.948 6098.948 0 0 1-129 75.5c-1.525 1.009-3.192 1.509-5 1.5a4112.896 4112.896 0 0 1-132-77c44.11-25.894 88.443-51.56 133-77a19940.131 19940.131 0 0 0 133 77Z" style="opacity:.993"/>
  <path fill="#feea5f" d="M198.5 76.5a2390.484 2390.484 0 0 1 80 46 4631.658 4631.658 0 0 1-79 46 4631.658 4631.658 0 0 1-79-46 2788.105 2788.105 0 0 1 78-46Z" style="opacity:1"/>
  <path fill="#a4a4a4" d="M66.5 121.5a4112.896 4112.896 0 0 0 132 77 6045.002 6045.002 0 0 1 1 155 15952.253 15952.253 0 0 1-133-76 3047.367 3047.367 0 0 1 0-156Z" style="opacity:.99"/>
  <path fill="#b4b3b3" d="M332.5 121.5a4008.427 4008.427 0 0 1 .5 155 5319.073 5319.073 0 0 1-133.5 77 6045.002 6045.002 0 0 0-1-155c1.808.009 3.475-.491 5-1.5a6098.948 6098.948 0 0 0 129-75.5Z" style="opacity:.987"/>
  <path fill="#efdb50" d="M304.5 169.5a2117.57 2117.57 0 0 1 1 92 8861.953 8861.953 0 0 1-78.5 45 2115.193 2115.193 0 0 1 0-92 9123.949 9123.949 0 0 1 77.5-45Z" style="opacity:1"/>
  <path fill="#d4c97c" d="M304.5 169.5c.06-.543.393-.876 1-1 1.33 31.164 1.33 62.164 0 93a2117.57 2117.57 0 0 0-1-92Z" style="opacity:1"/>
  <path fill="#e0cc41" d="M172.5 214.5a2117.57 2117.57 0 0 1-1 92 436209.776 436209.776 0 0 0-78-45 1442.043 1442.043 0 0 1-.5-93 9598.24 9598.24 0 0 0 79.5 46Z" style="opacity:1"/>
  <path fill="#aeaa94" d="M172.5 214.5c1.33 30.836 1.33 61.836 0 93-.607-.124-.94-.457-1-1a2117.57 2117.57 0 0 0 1-92Z" style="opacity:1"/>
</svg>
