<svg version="1.1" xmlns="http://www.w3.org/2000/svg" viewBox="0 0 6849.056243896484 1811.299743652344" width="6849.056243896484" height="1811.299743652344">
  <!-- svg-source:excalidraw -->
  
  <defs>
    <style>
      @font-face {
        font-family: "Virgil";
        src: url("https://excalidraw.com/Virgil.woff2");
      }
      @font-face {
        font-family: "Cascadia";
        src: url("https://excalidraw.com/Cascadia.woff2");
      }
    </style>
  </defs>
  <rect x="0" y="0" width="6849.056243896484" height="1811.299743652344" fill="#ffffff"></rect><g transform="translate(2979.024383544922 289.3819122314453) rotate(0 67.5 23)"><text x="0" y="32" font-family="Virgil, Segoe UI Emoji" font-size="36px" fill="#000000" text-anchor="start" style="white-space: pre;" direction="ltr">jspm.org</text></g><g transform="translate(2802.7801208496094 363.1223602294922) rotate(0 266.5 12.5)"><text x="0" y="18" font-family="Virgil, Segoe UI Emoji" font-size="20px" fill="#000000" text-anchor="start" style="white-space: pre;" direction="ltr">https://github.com/jspm/jspm.org/blob/main/sitemap.json</text></g><g stroke-linecap="round" transform="translate(10 1313.8561401367188) rotate(0 510.0775146484375 241.38922119140636)"><path d="M0.19 0.06 C210.32 -2.66, 419.7 -3.78, 1019.7 -0.16 M-0.26 0.26 C381.76 3.56, 762.72 4.06, 1020.38 0.26 M1020.71 -0.44 C1018.77 190.08, 1017.56 381.41, 1019.99 482.73 M1020.39 0.29 C1020.09 119.8, 1020.55 239.7, 1020.16 482.36 M1020.11 482.36 C814.21 481.48, 606.86 481.74, -0.57 482.49 M1019.79 482.53 C638.35 480.94, 255.83 481.58, 0 483.06 M-0.63 482.36 C-1.1 328.99, -0.89 175.25, -0.36 0.43 M0.12 482.45 C-2 315.51, -1.29 148.53, 0.3 -0.39" stroke="#000000" stroke-width="1" fill="none"></path></g><g stroke-linecap="round" transform="translate(1950.9042968749998 586.9707336425781) rotate(0 124.43922424316406 54.52607727050781)"><path d="M-2.68 -3.07 C82.92 -0.9, 166.02 -0.02, 247.52 -2.53 M0.45 0.86 C66.42 1.42, 131.05 2.51, 248.34 0.59 M248.28 -1.71 C248.48 34.29, 250.9 67.75, 249.25 108.48 M247.48 -1.26 C246.25 35.49, 246.55 67.63, 249.67 107.55 M245.82 111.94 C180.37 109.85, 107.41 111.97, -2.4 110.11 M249.57 107.48 C200.41 107.34, 149.8 107.64, -0.51 110.44 M-0.68 108.41 C0.7 76.43, 3.75 41.39, -0.6 -2.22 M-0.01 109.46 C-1.25 74.33, -1.39 37.51, 1.13 -0.08" stroke="#000000" stroke-width="4" fill="none"></path></g><g transform="translate(2002.3435211181638 628.9968109130859) rotate(0 82 12)"><text x="82" y="20" font-family="Cascadia, Segoe UI Emoji" font-size="20px" fill="#000000" text-anchor="middle" style="white-space: pre;" direction="ltr">pathname = "/"</text></g><g stroke-linecap="round" transform="translate(2537.882766723633 118.09996032714844) rotate(0 60.19961955393856 26.3779296875)"><path d="M-0.86 3.76 C34.35 0.13, 67.93 -1.06, 118.95 2.84 M-0.04 1.13 C45.15 1.62, 91.53 0.59, 118.82 1.96 M123.22 1.66 C117.09 16.73, 121.98 37.62, 116.66 51.1 M118.71 -1.21 C120.9 15.78, 120.84 32.03, 122.4 52.68 M118.18 52.65 C78.9 50.99, 39.41 53.82, -2.29 49.34 M118.76 52.67 C74.76 54.27, 24.78 55.42, 0.58 54.39 M3.41 55.49 C0.44 38.85, -3.09 19.48, -0.2 -0.83 M0.51 52.8 C0.56 31.95, 1.05 12.55, -1.35 0.15" stroke="#000000" stroke-width="4" fill="none"></path></g><g transform="translate(2562.767378054359 138.43079956546825) rotate(0 39.66891334662219 5.8052068312130025)"><text x="39.66891334662219" y="9.610413662426005" font-family="Cascadia, Segoe UI Emoji" font-size="9.675344718688336px" fill="#000000" text-anchor="middle" style="white-space: pre;" direction="ltr">pathname = "/"</text></g><g transform="translate(2425.0359802246094 135.8687744140625) rotate(0 36.5 12.5)"><text x="36.5" y="18" font-family="Virgil, Segoe UI Emoji" font-size="20px" fill="#000000" text-anchor="middle" style="white-space: pre;" direction="ltr">an URL</text></g><g transform="translate(2518.784637451172 10) rotate(0 68 23)"><text x="68" y="32" font-family="Virgil, Segoe UI Emoji" font-size="36px" fill="#000000" text-anchor="middle" style="white-space: pre;" direction="ltr">Legends</text></g><g stroke-linecap="round"><g transform="translate(2506.6924438476562 147.1578369140625) rotate(0 15.395156860351562 -0.188629150390625)"><path d="M0 0 C5.13 -0.06, 25.66 -0.31, 30.79 -0.38 M0 0 C5.13 -0.06, 25.66 -0.31, 30.79 -0.38" stroke="#000000" stroke-width="1" fill="none"></path></g><g transform="translate(2506.6924438476562 147.1578369140625) rotate(0 15.395156860351562 -0.188629150390625)"><path d="M16.39 5.07 C20.14 3.65, 23.89 2.23, 30.79 -0.38 M16.39 5.07 C20.88 3.37, 25.36 1.67, 30.79 -0.38" stroke="#000000" stroke-width="1" fill="none"></path></g><g transform="translate(2506.6924438476562 147.1578369140625) rotate(0 15.395156860351562 -0.188629150390625)"><path d="M16.26 -5.47 C20.04 -4.14, 23.83 -2.82, 30.79 -0.38 M16.26 -5.47 C20.79 -3.88, 25.32 -2.29, 30.79 -0.38" stroke="#000000" stroke-width="1" fill="none"></path></g></g><g stroke-linecap="round" transform="translate(2278.853530883789 574.1055450439453) rotate(0 142.3605804443359 62.37875602964169)"><path d="M-1.87 -0.54 C79.16 0.38, 152.07 3.28, 287.21 -1.84 M-1.08 1.46 C83.63 0.77, 166.88 0.82, 285.88 -1.35 M286.16 -2.49 C286.77 39.36, 281.21 77.21, 281.16 123.18 M282.97 -1.6 C282.88 25.83, 285.23 51.07, 286.65 124.63 M285.97 125.33 C191.23 118.5, 100.86 123.96, -2.12 124.95 M285.55 125.34 C185.98 124.77, 86.41 123.88, 0.58 124.18 M-0.91 126.98 C-1.82 82.4, 2.08 45.97, -1.51 -0.11 M-1.85 123.03 C1.4 76.13, 1.69 30.61, 1.2 1.16" stroke="#000000" stroke-width="4" fill="none"></path></g><g transform="translate(2292.2140502929688 624.7183708978057) rotate(0 129 12)"><text x="129" y="20" font-family="Cascadia, Segoe UI Emoji" font-size="20px" fill="#000000" text-anchor="middle" style="white-space: pre;" direction="ltr">pathname = "/docs/cdn"</text></g><g stroke-linecap="round" transform="translate(2631.184768676758 576.9064483642578) rotate(0 177.06147766113276 54.52607727050781)"><path d="M1.11 -2.46 C82.04 4.27, 159.61 3.27, 354.27 -1.13 M0.08 -0.15 C100.37 4.19, 200.93 3.93, 354.21 1.1 M357.29 3.39 C351.9 27.1, 349.65 54.72, 353.36 110.68 M352.89 0.4 C353.67 33.98, 353.24 70.1, 353.2 110.67 M354.26 110.28 C282.38 109.89, 210.55 107.4, 2.03 110.58 M354.81 108.97 C220.03 108.13, 89.5 108.14, -0.77 108.92 M1.88 107.5 C-1.42 77.11, -4.07 44.84, 2.55 -0.82 M1.13 108.11 C0.97 76.66, 3.08 38.59, 1.72 -0.45" stroke="#000000" stroke-width="4" fill="none"></path></g><g transform="translate(2644.1366271972656 615.8877868652344) rotate(0 164 12)"><text x="164" y="20" font-family="Cascadia, Segoe UI Emoji" font-size="20px" fill="#000000" text-anchor="middle" style="white-space: pre;" direction="ltr">pathname = "/docs/workflows"</text></g><g stroke-linecap="round" transform="translate(3057.3504486083984 570.6312713623047) rotate(0 177.06147766113276 54.52607727050781)"><path d="M-1 0.04 C117.83 1.72, 235.66 0.72, 354.62 0.44 M0.74 -0.44 C106.55 -0.29, 210.77 -0.31, 354.52 0.33 M353.24 -1.43 C354.52 36.76, 355.9 72.55, 351.27 109.03 M354.41 -1.82 C354.73 41.88, 352.22 85.42, 353.78 107.45 M356.34 106.67 C241.96 110.34, 126.14 109.44, 0.42 107.68 M354.88 109.18 C231.13 104.41, 111.53 103.94, -0.7 109.43 M3.53 111.94 C-1.73 71.66, -3.8 32.19, 1.52 3.35 M0.99 108.8 C0.37 76.24, 0.27 46.04, 1.86 -1.12" stroke="#000000" stroke-width="4" fill="none"></path></g><g transform="translate(3105.3023071289062 609.6126098632812) rotate(0 129 12)"><text x="129" y="20" font-family="Cascadia, Segoe UI Emoji" font-size="20px" fill="#000000" text-anchor="middle" style="white-space: pre;" direction="ltr">pathname = "/docs/api"</text></g><g stroke-linecap="round" transform="translate(3495.3590240478516 567.0327301025391) rotate(0 177.0614776611327 54.52607727050781)"><path d="M-1.13 -0.48 C123.81 3.48, 242.43 2.39, 354.32 -2.27 M0.05 -0.19 C127.45 -0.56, 255.9 -0.5, 354 0.19 M354.76 2.96 C355.05 32.49, 354.06 64.19, 351.5 106.45 M354.95 -0.45 C357.53 23.68, 354.15 48.12, 352.25 107.38 M355.04 109.6 C246.17 107.44, 133.42 111.19, 0.28 106.91 M355.35 108.04 C228.94 108.25, 101.19 108.04, 0.63 108.63 M-1.89 112.09 C-4.02 77.4, -2.96 35.89, 3.86 0.95 M1.08 109.19 C1.71 83.07, 0.57 54.29, -0.92 -0.05" stroke="#000000" stroke-width="4" fill="none"></path></g><g transform="translate(3508.3108825683594 606.0140686035156) rotate(0 164 12)"><text x="164" y="20" font-family="Cascadia, Segoe UI Emoji" font-size="20px" fill="#000000" text-anchor="middle" style="white-space: pre;" direction="ltr">pathname = "/import-map-cdn"</text></g><g stroke-linecap="round" transform="translate(3887.243118286133 565.5683746337891) rotate(0 207.77705383300793 54.52607727050781)"><path d="M-1.54 -0.98 C97.91 -1.09, 191.68 1.5, 414.59 -2.14 M0.88 0.19 C166.06 -4.28, 330.42 -3.5, 414.72 0.8 M411.7 1 C415.86 32.19, 415.98 67.85, 413.09 107.27 M415.62 -0.48 C415.1 27.5, 417.29 53.07, 417.11 110.54 M413.52 110.86 C283.15 111.46, 148.57 112.34, 0.22 108.39 M416.63 109.11 C299.08 110.25, 182.19 110.89, -0.63 108.13 M0.49 107.37 C-3.29 75.41, 3.47 37.83, -2.17 -1.61 M0.38 109.45 C2.44 86.07, 1.29 60.97, 1.42 -0.19" stroke="#000000" stroke-width="4" fill="none"></path></g><g transform="translate(3909.279083251953 593.3450012207031) rotate(0 176 12)"><text x="176" y="20" font-family="Cascadia, Segoe UI Emoji" font-size="20px" fill="#000000" text-anchor="middle" style="white-space: pre;" direction="ltr">pathname = "/jspm-dev-release"</text></g><g transform="translate(60.054046630859375 1347.226806640625) rotate(0 413.5 23)"><text x="413.5" y="32" font-family="Virgil, Segoe UI Emoji" font-size="36px" fill="#000000" text-anchor="middle" style="white-space: pre;" direction="ltr">JSPM - ES Module Package Manager and CDN</text></g><g transform="translate(73.35232543945312 1454.6930541992188) rotate(0 230 12.5)"><text x="230" y="18" font-family="Virgil, Segoe UI Emoji" font-size="20px" fill="#000000" text-anchor="middle" style="white-space: pre;" direction="ltr">JSPM - ES Module Package Manager and CDN</text></g><g stroke-linecap="round" transform="translate(1198.896453857422 1305.4508056640625) rotate(0 510.0775146484375 241.38922119140636)"><path d="M0.11 -0.34 C342.23 -1.85, 684.34 -1.56, 1020.64 0.38 M-0.09 -0.23 C277.1 4.04, 553.3 3.87, 1020.46 0.22 M1020.61 -0.4 C1020.96 182.87, 1020.67 366.69, 1020.76 482.85 M1020.54 0.35 C1020.76 171.89, 1021.27 343.56, 1020.29 482.87 M1020 483.47 C718.98 485.22, 418.8 484.99, 0.17 483.16 M1020.44 482.77 C759.21 482.77, 498.36 482.79, -0.23 482.55 M-0.37 482.98 C0.09 379.79, -1.13 276.42, 0.48 0.76 M0.08 482.59 C1.48 351.27, 0.91 219.97, -0.09 0.23" stroke="#000000" stroke-width="1" fill="none"></path></g><g transform="translate(1306.4505004882817 1338.8214721679688) rotate(0 356 23)"><text x="356" y="32" font-family="Virgil, Segoe UI Emoji" font-size="36px" fill="#000000" text-anchor="middle" style="white-space: pre;" direction="ltr">Native ES Module CDN - Documentation</text></g><g transform="translate(1325.7797851562505 1446.2877197265625) rotate(0 166 12.5)"><text x="166" y="18" font-family="Virgil, Segoe UI Emoji" font-size="20px" fill="#000000" text-anchor="middle" style="white-space: pre;" direction="ltr">JSPM Module CDN Documentation</text></g><g stroke-linecap="round" transform="translate(2285.922576904297 1303.8829345703125) rotate(0 510.0775146484375 241.38922119140636)"><path d="M-0.75 0.53 C270.05 -1.55, 539.4 -2.53, 1020.72 -0.69 M0.03 -0.29 C324.97 -3.39, 650.42 -3.38, 1020.02 -0.25 M1020.27 0.79 C1018.16 128.36, 1018.17 254.78, 1019.94 483.3 M1020.19 0.37 C1018.94 167.84, 1018.81 336.66, 1020.13 482.99 M1020.61 482.86 C622.44 482.72, 224.67 483.59, -0.05 483.3 M1019.99 482.97 C622.03 486.67, 224.52 486.17, -0.22 482.92 M-0.07 481.94 C-1.49 339.14, -0.89 193.64, 0.19 0.47 M0.25 483.19 C1.05 311.98, 1.67 141.52, -0.08 -0.43" stroke="#000000" stroke-width="1" fill="none"></path></g><g transform="translate(2455.4766235351562 1337.2536010742188) rotate(0 294 23)"><text x="294" y="32" font-family="Virgil, Segoe UI Emoji" font-size="36px" fill="#000000" text-anchor="middle" style="white-space: pre;" direction="ltr">JSPM Workflows - Documentation</text></g><g transform="translate(2343.3059082031255 1444.7198486328125) rotate(0 235.5 12.5)"><text x="235.5" y="18" font-family="Virgil, Segoe UI Emoji" font-size="20px" fill="#000000" text-anchor="middle" style="white-space: pre;" direction="ltr">JSPM workflows from development to production</text></g><g stroke-linecap="round" transform="translate(3457.253387451172 1298.202392578125) rotate(0 510.0775146484375 241.38922119140636)"><path d="M-0.43 -0.11 C248.73 3.43, 498.55 4.07, 1019.54 -0.18 M-0.1 -0.07 C210.89 0.74, 422.46 0.58, 1019.89 -0.13 M1020.65 0.25 C1018.66 102.76, 1018.83 205.61, 1020.68 483.63 M1020.12 0.02 C1020.5 183.18, 1020.55 366.81, 1020.32 482.58 M1019.87 483.2 C760.14 480.33, 501.42 479.96, 0.53 483.53 M1019.92 482.9 C795.33 481.64, 569.37 481.84, -0.39 482.88 M-0.52 483.02 C-2.55 342.4, -2.44 200.95, 0.54 -0.26 M-0.28 482.53 C-1.68 383.71, -1.07 284.36, -0.4 0.18" stroke="#000000" stroke-width="1" fill="none"></path></g><g transform="translate(3887.3074340820317 1331.5730590820312) rotate(0 33.5 23)"><text x="33.5" y="32" font-family="Virgil, Segoe UI Emoji" font-size="36px" fill="#000000" text-anchor="middle" style="white-space: pre;" direction="ltr">API</text></g><g transform="translate(3684.136718750001 1439.039306640625) rotate(0 66 12.5)"><text x="66" y="18" font-family="Virgil, Segoe UI Emoji" font-size="20px" fill="#000000" text-anchor="middle" style="white-space: pre;" direction="ltr">JSPM.IO API</text></g><g stroke-linecap="round" transform="translate(4693.616302490234 1310.3837890625) rotate(0 510.0775146484375 241.38922119140636)"><path d="M0.18 -0.47 C379.27 2.18, 759.83 1.94, 1019.6 -0.18 M-0.24 -0.05 C385.16 0.4, 771.13 0.15, 1020.19 0.23 M1020.94 0.83 C1020.09 189.73, 1020.61 378.02, 1020.3 482.54 M1020.24 0.1 C1018.63 121.19, 1018.52 242.71, 1019.86 482.75 M1019.96 482.14 C757.27 481, 494.63 481.1, -0.03 482.69 M1020.22 482.73 C750.94 481.1, 482.43 480.83, 0.19 482.47 M-0.34 483.57 C1.37 322.22, 2.01 164.11, -0.06 -0.37 M0.17 482.54 C0.03 312.41, 0.19 142.15, -0.23 0.3" stroke="#000000" stroke-width="1" fill="none"></path></g><g transform="translate(4764.170349121094 1343.7544555664062) rotate(0 393 23)"><text x="393" y="32" font-family="Virgil, Segoe UI Emoji" font-size="36px" fill="#000000" text-anchor="middle" style="white-space: pre;" direction="ltr">Import Maps Release &amp; Module CDN Launch</text></g><g transform="translate(4825.244628906251 1501.252197265625) rotate(0 394.5 25)"><text x="0" y="18" font-family="Virgil, Segoe UI Emoji" font-size="20px" fill="#000000" text-anchor="start" style="white-space: pre;" direction="ltr">Import maps have just landed in Chrome 89 and </text><text x="0" y="43" font-family="Virgil, Segoe UI Emoji" font-size="20px" fill="#000000" text-anchor="start" style="white-space: pre;" direction="ltr">a new ga.jspm.io module CDN has been launched to support these new workflows</text></g><g stroke-linecap="round" transform="translate(5818.901214599609 1318.5213012695312) rotate(0 510.0775146484375 241.38922119140636)"><path d="M0.48 0.39 C349.85 -1.44, 698.94 -0.3, 1020.09 0.56 M0.07 0.32 C334.5 -3.49, 669.23 -3.69, 1019.9 0.19 M1020.54 0.11 C1019.21 164.11, 1019.65 329.41, 1019.85 482.68 M1020.48 -0.22 C1020.94 179.48, 1021.1 359.04, 1020.16 482.82 M1019.4 483.25 C702.75 484.46, 384.62 483.66, 0.5 483.51 M1020.25 482.38 C646.27 481.8, 272.46 481.99, -0.36 482.39 M-0.61 482.55 C-1.46 319.42, -1.42 157.19, 0.36 0.29 M0.32 482.63 C-0.83 342.31, -0.61 202.15, 0.32 -0.27" stroke="#000000" stroke-width="1" fill="none"></path></g><g transform="translate(6134.455261230469 1351.8919677734375) rotate(0 148 23)"><text x="148" y="32" font-family="Virgil, Segoe UI Emoji" font-size="36px" fill="#000000" text-anchor="middle" style="white-space: pre;" direction="ltr">jspm.dev Release</text></g><g transform="translate(5950.0592041015625 1509.3897094726562) rotate(0 132 12.5)"><text x="0" y="18" font-family="Virgil, Segoe UI Emoji" font-size="20px" fill="#000000" text-anchor="start" style="white-space: pre;" direction="ltr">jspm.dev CDN release post</text></g><g stroke-linecap="round"><g transform="translate(1962.6720479329406 703.0029144287112) rotate(0 -540.16357421875 301.9258499145509)"><path d="M0 0 C-180.05 100.64, -900.27 503.21, -1080.33 603.85 M0 0 C-180.05 100.64, -900.27 503.21, -1080.33 603.85" stroke="#000000" stroke-width="1" fill="none"></path></g><g transform="translate(1962.6720479329406 703.0029144287112) rotate(0 -540.16357421875 301.9258499145509)"><path d="M-1060.73 581.14 C-1066.98 588.39, -1073.24 595.64, -1080.33 603.85 M-1060.73 581.14 C-1066.51 587.84, -1072.29 594.54, -1080.33 603.85" stroke="#000000" stroke-width="1" fill="none"></path></g><g transform="translate(1962.6720479329406 703.0029144287112) rotate(0 -540.16357421875 301.9258499145509)"><path d="M-1050.71 599.05 C-1060.16 600.58, -1069.61 602.12, -1080.33 603.85 M-1050.71 599.05 C-1059.45 600.47, -1068.19 601.89, -1080.33 603.85" stroke="#000000" stroke-width="1" fill="none"></path></g></g><g stroke-linecap="round"><g transform="translate(2424.923024495442 702.9123535156245) rotate(0 -221.63716634114576 298.5816446940105)"><path d="M0 0 C-73.88 99.53, -369.4 497.64, -443.27 597.16 M0 0 C-73.88 99.53, -369.4 497.64, -443.27 597.16" stroke="#000000" stroke-width="1" fill="none"></path></g><g transform="translate(2424.923024495442 702.9123535156245) rotate(0 -221.63716634114576 298.5816446940105)"><path d="M-434.71 568.41 C-436.73 575.2, -438.75 581.99, -443.27 597.16 M-434.71 568.41 C-436.76 575.3, -438.81 582.18, -443.27 597.16" stroke="#000000" stroke-width="1" fill="none"></path></g><g transform="translate(2424.923024495442 702.9123535156245) rotate(0 -221.63716634114576 298.5816446940105)"><path d="M-418.23 580.64 C-424.14 584.54, -430.06 588.44, -443.27 597.16 M-418.23 580.64 C-424.23 584.6, -430.22 588.55, -443.27 597.16" stroke="#000000" stroke-width="1" fill="none"></path></g></g><g stroke-linecap="round"><g transform="translate(2803.417185465496 696.7358754475904) rotate(0 7.712554931640625 295.8846664428711)"><path d="M0 0 C2.57 98.63, 12.85 493.14, 15.43 591.77 M0 0 C2.57 98.63, 12.85 493.14, 15.43 591.77" stroke="#000000" stroke-width="1" fill="none"></path></g><g transform="translate(2803.417185465496 696.7358754475904) rotate(0 7.712554931640625 295.8846664428711)"><path d="M4.43 563.86 C6.9 570.13, 9.37 576.4, 15.43 591.77 M4.43 563.86 C7.31 571.17, 10.19 578.49, 15.43 591.77" stroke="#000000" stroke-width="1" fill="none"></path></g><g transform="translate(2803.417185465496 696.7358754475904) rotate(0 7.712554931640625 295.8846664428711)"><path d="M24.95 563.32 C22.81 569.72, 20.67 576.11, 15.43 591.77 M24.95 563.32 C22.45 570.78, 19.96 578.23, 15.43 591.77" stroke="#000000" stroke-width="1" fill="none"></path></g></g><g stroke-linecap="round"><g transform="translate(3294.894948323569 683.8707071940103) rotate(0 165.91227213541674 305.15009562174475)"><path d="M0 0 C55.3 101.72, 276.52 508.58, 331.82 610.3 M0 0 C55.3 101.72, 276.52 508.58, 331.82 610.3" stroke="#000000" stroke-width="1" fill="none"></path></g><g transform="translate(3294.894948323569 683.8707071940103) rotate(0 165.91227213541674 305.15009562174475)"><path d="M309.34 590.43 C315.14 595.55, 320.93 600.67, 331.82 610.3 M309.34 590.43 C317.5 597.64, 325.65 604.84, 331.82 610.3" stroke="#000000" stroke-width="1" fill="none"></path></g><g transform="translate(3294.894948323569 683.8707071940103) rotate(0 165.91227213541674 305.15009562174475)"><path d="M327.37 580.63 C328.52 588.28, 329.67 595.92, 331.82 610.3 M327.37 580.63 C328.99 591.39, 330.6 602.15, 331.82 610.3" stroke="#000000" stroke-width="1" fill="none"></path></g></g><g stroke-linecap="round"><g transform="translate(3787.9360758463563 680.1760457356776) rotate(0 516.3679250081378 311.22970581054693)"><path d="M0 0 C172.12 103.74, 860.61 518.72, 1032.74 622.46 M0 0 C172.12 103.74, 860.61 518.72, 1032.74 622.46" stroke="#000000" stroke-width="1" fill="none"></path></g><g transform="translate(3787.9360758463563 680.1760457356776) rotate(0 516.3679250081378 311.22970581054693)"><path d="M1003.29 616.69 C1012.13 618.42, 1020.96 620.15, 1032.74 622.46 M1003.29 616.69 C1009.98 618, 1016.66 619.31, 1032.74 622.46" stroke="#000000" stroke-width="1" fill="none"></path></g><g transform="translate(3787.9360758463563 680.1760457356776) rotate(0 516.3679250081378 311.22970581054693)"><path d="M1013.89 599.12 C1019.54 606.12, 1025.2 613.13, 1032.74 622.46 M1013.89 599.12 C1018.17 604.42, 1022.44 609.71, 1032.74 622.46" stroke="#000000" stroke-width="1" fill="none"></path></g></g><g stroke-linecap="round"><g transform="translate(4320.167775472007 676.7781677246098) rotate(0 783.6782836914061 317.5632985432943)"><path d="M0 0 C261.23 105.85, 1306.13 529.27, 1567.36 635.13 M0 0 C261.23 105.85, 1306.13 529.27, 1567.36 635.13" stroke="#000000" stroke-width="1" fill="none"></path></g><g transform="translate(4320.167775472007 676.7781677246098) rotate(0 783.6782836914061 317.5632985432943)"><path d="M1537.38 634.05 C1546.59 634.38, 1555.8 634.71, 1567.36 635.13 M1537.38 634.05 C1547.74 634.42, 1558.11 634.79, 1567.36 635.13" stroke="#000000" stroke-width="1" fill="none"></path></g><g transform="translate(4320.167775472007 676.7781677246098) rotate(0 783.6782836914061 317.5632985432943)"><path d="M1545.08 615.03 C1551.93 621.21, 1558.77 627.38, 1567.36 635.13 M1545.08 615.03 C1552.79 621.98, 1560.49 628.93, 1567.36 635.13" stroke="#000000" stroke-width="1" fill="none"></path></g></g></svg>